Coordinates
version=1
nRows=7
nColumns=40
inDegrees=yes

Units are S.I. units (second, meters, Newtons, ...)
Angles are in degrees.

endheader
time	pelvis_tilt	pelvis_list	pelvis_rotation	pelvis_tx	pelvis_ty	pelvis_tz	hip_flexion_r	hip_adduction_r	hip_rotation_r	knee_angle_r	knee_angle_r_beta	ankle_angle_r	subtalar_angle_r	mtp_angle_r	hip_flexion_l	hip_adduction_l	hip_rotation_l	knee_angle_l	knee_angle_l_beta	ankle_angle_l	subtalar_angle_l	mtp_angle_l	lumbar_extension	lumbar_bending	lumbar_rotation	arm_flex_r	arm_add_r	arm_rot_r	elbow_flex_r	pro_sup_r	wrist_flex_r	wrist_dev_r	arm_flex_l	arm_add_l	arm_rot_l	elbow_flex_l	pro_sup_l	wrist_flex_l	wrist_dev_l
     53.26000000	     -2.73379603	     -5.51163504	     -0.53281051	      1.11669108	      0.91927099	      0.39021515	     22.71075877	     -7.12890253	     -1.88985534	     60.66940128	     60.66940128	     -2.62801807	    -13.17267328	    -10.40096868	     20.09154163	     -4.34191934	     -2.54667206	     32.95055274	     32.95055274	     17.96983611	    -17.07374002	      6.81801272	    -10.81319922	      6.54921347	      3.37783675	     24.39275593	    -12.90176174	     -8.73983223	     38.22111019	     45.71629750	      0.00000000	      0.00000000	     13.49717223	    -15.11791198	     22.35323180	     32.34006422	     45.09843717	      0.00000000	      0.00000000
     53.28028571	     -2.48030272	     -5.59367977	     -1.04364949	      1.11681910	      0.91759948	      0.38930846	     23.87732780	     -6.89546865	     -1.14468471	     62.48635638	     62.48635638	     -2.87128486	    -13.68638303	     -9.83240385	     19.89837298	     -4.47548834	     -2.84344887	     33.85320083	     33.85320083	     18.64510751	    -17.34018662	      6.59213237	    -10.90717739	      6.80061593	      3.20328987	     20.43382031	    -12.82299912	     -8.78247041	     36.16812617	     45.77592278	      0.00000000	      0.00000000	     15.36604810	    -15.37295065	     21.92041879	     33.48870881	     45.18687309	      0.00000000	      0.00000000
     53.30057143	     -2.20038769	     -5.63046017	     -1.55680662	      1.11688744	      0.91624346	      0.38844255	     24.96178725	     -6.70019976	     -0.46733205	     64.03537465	     64.03537465	     -2.83552923	    -14.05816679	     -8.87716573	     19.57703096	     -4.54771779	     -3.15025579	     34.59253317	     34.59253317	     19.30693665	    -17.56649974	      6.51382326	    -11.09507381	      7.01584559	      3.13588880	     16.43523118	    -12.81819012	     -8.88413677	     33.87093028	     45.84953106	      0.00000000	      0.00000000	     17.38994803	    -15.64780895	     21.34740737	     34.81815361	     45.29513215	      0.00000000	      0.00000000
     53.32085714	     -1.94879029	     -5.65588013	     -2.09562063	      1.11686995	      0.91535187	      0.38782199	     25.95979604	     -6.50374687	      0.07336346	     65.14414160	     65.14414160	     -2.48960138	    -14.38904396	     -7.67368563	     19.13988839	     -4.61855805	     -3.51781412	     35.06860770	     35.06860770	     19.93030505	    -17.70361959	      6.55218292	    -11.27620438	      7.19823311	      3.16323878	     12.56456302	    -12.83191471	     -9.04355969	     31.44017244	     45.93501609	      0.00000000	      0.00000000	     19.45837129	    -15.88873888	     20.64500606	     36.24980687	     45.41875866	      0.00000000	      0.00000000
     53.34114286	     -1.73180219	     -5.71507850	     -2.61122886	      1.11675749	      0.91511935	      0.38749079	     26.95699205	     -6.27688309	      0.41738925	     65.98448488	     65.98448488	     -0.29257770	    -13.69939883	     -2.14382447	     18.59968243	     -4.72430148	     -3.87936687	     35.28084151	     35.28084151	     20.68845801	    -17.71646050	      7.25656875	    -11.47591656	      7.45495811	      2.64776204	      9.91396923	    -12.17466346	    -11.99888271	     27.29271844	     46.35647927	      0.00000000	      0.00000000	     20.89803078	    -16.03166774	     17.04206838	     37.96394425	     45.90560489	      0.00000000	      0.00000000
     53.36142857	     -1.65584851	     -5.64781995	     -3.18298328	      1.11637999	      0.91543056	      0.38755473	     27.78136708	     -6.12993122	      0.69927707	     65.78611883	     65.78611883	      0.23795850	    -14.30824183	     -2.04245672	     17.98740602	     -4.72415449	     -4.38029361	     35.01278203	     35.01278203	     20.95243640	    -17.74827291	      7.24899235	    -11.55675952	      7.52822955	      2.63022973	      6.35657379	    -12.20878832	    -12.06953350	     25.44829878	     46.41483773	      0.00000000	      0.00000000	     22.90744955	    -16.45142003	     16.42581818	     39.34162154	     46.00733520	      0.00000000	      0.00000000
     53.38171429	     -1.65438803	     -5.62047022	     -3.76297432	      1.11580572	      0.91648769	      0.38804391	     28.45402921	     -5.93324139	      0.77903275	     64.83101802	     64.83101802	      1.04015072	    -14.79839605	     -1.92833510	     17.27842217	     -4.78941494	     -4.93220211	     34.38301511	     34.38301511	     21.07034044	    -17.69295308	      7.24260115	    -11.63976105	      7.61551986	      2.65708032	      3.00794401	    -12.22041505	    -12.18973001	     23.78798045	     46.47380670	      0.00000000	      0.00000000	     24.81113011	    -16.88668717	     15.58011484	     40.90606204	     46.13129226	      0.00000000	      0.00000000
